<svg id="Capa_1" enable-background="new 0 0 512.542 512.542" height="512" viewBox="0 0 512.542 512.542" width="512" xmlns="http://www.w3.org/2000/svg"><g><path d="m139.497 175.303v86.071c0 45.859 26.295 85.774 64.446 105.096 5.431 3.617 11.342 6.626 17.664 8.89h.001c11.015 3.945 22.589 5.918 34.163 5.918s23.148-1.973 34.164-5.918c5.825-2.086 11.301-4.806 16.374-8.049 11.477-5.561 22.083-13.052 31.406-22.322 22.138-22.012 34.33-51.282 34.33-82.42v-87.309c0-6.689-3.378-12.791-9.035-16.321-70.727-44.15-142.861-44.153-214.395-.012-5.624 3.473-9.118 9.748-9.118 16.376zm15 62.407 21.887 19.543c-5.577 5.026-8.972 12.282-8.972 20.045 0 0 .27 28.499.767 32.125.013.123.472 3.151.74 4.528-9.15-15.394-14.422-33.389-14.422-52.578zm101.278 126.135c-.197 0-.398-.001-.596-.002-15.598-.089-30.379-3.783-43.571-10.294-14.975-10.225-25.295-26.242-28.291-44.276 1.256-3.064 3.745-5.505 6.868-6.67 0 0 32.773-12.329 33.331-12.739l12.102-8.892c12.056-8.856 28.253-8.856 40.307 0l12.102 8.892c.558.41 33.33 12.738 33.33 12.738 3.124 1.167 5.612 3.607 6.869 6.671-3.057 18.401-13.735 34.708-29.206 44.9-13.36 6.334-28.05 9.672-43.245 9.672zm65.582-97.742c4.649 1.734 7.773 6.233 7.773 11.196v12.357c-.822-.408-1.663-.784-2.531-1.108l-30.533-11.391-11.261-8.273c-17.365-12.76-40.703-12.76-58.068 0l-11.261 8.273-30.534 11.392c-.868.324-1.709.699-2.53 1.107v-12.357c0-4.963 3.124-9.462 7.774-11.197l31.512-11.756c.648-.242 1.261-.573 1.818-.983l12.102-8.892c12.056-8.857 28.253-8.855 40.307 0l12.102 8.892c.558.41 1.17.741 1.818.983zm21.042 48.925c.362-1.729.951-5.481.965-5.605.497-3.626.767-7.31.767-11.038v-21.086c0-7.274-2.99-14.095-7.953-19.062l20.868-18.634v22.967c-.001 18.786-5.102 36.791-14.647 52.458zm-185.906-143.334c33.203-20.49 66.667-30.895 99.461-30.926h.146c32.826 0 66.125 10.396 98.968 30.897 1.22.761 1.978 2.139 1.978 3.596v9.566h-145.679c-4.143 0-7.5 3.357-7.5 7.5s3.357 7.5 7.5 7.5h145.679v19.666l-34.687 30.973-26.293-9.81-11.261-8.273c-17.365-12.76-40.703-12.76-58.068 0l-11.261 8.273-24.798 9.252-36.182-32.308v-17.772h24.908c4.143 0 7.5-3.357 7.5-7.5s-3.357-7.5-7.5-7.5h-24.908v-9.525c.001-1.466.765-2.849 1.997-3.609z"/><path d="m312.204 106.031c9.772 0 17.724-7.951 17.724-17.724v-15.5c0-9.772-7.951-17.724-17.724-17.724h-112.866c-9.772 0-17.724 7.951-17.724 17.724v15.501c0 9.772 7.951 17.724 17.724 17.724h112.866zm-115.589-17.723v-15.501c0-1.502 1.222-2.724 2.724-2.724h112.865c1.502 0 2.724 1.222 2.724 2.724v15.501c0 1.502-1.222 2.724-2.724 2.724h-112.866c-1.502-.001-2.723-1.222-2.723-2.724z"/><path d="m266.629 298.679h-21.717c-9.979 0-18.099 8.119-18.099 18.099v9.214c0 9.979 8.119 18.099 18.099 18.099h21.717c9.979 0 18.099-8.119 18.099-18.099v-9.214c0-9.98-8.119-18.099-18.099-18.099zm3.099 27.312c0 1.709-1.39 3.099-3.099 3.099h-21.717c-1.709 0-3.099-1.39-3.099-3.099v-9.214c0-1.709 1.39-3.099 3.099-3.099h21.717c1.709 0 3.099 1.39 3.099 3.099z"/><path d="m92.359 469.792c-4.143 0-7.5 3.357-7.5 7.5v27.75c0 4.143 3.357 7.5 7.5 7.5s7.5-3.357 7.5-7.5v-27.75c0-4.143-3.358-7.5-7.5-7.5z"/><path d="m410.908 393.129-37.478-43.776c18.063-24.488 28.614-54.642 28.614-86.783v-116.296c0-10.127-1.048-20.265-3.114-30.131-.849-4.055-4.833-6.651-8.878-5.804-4.055.85-6.652 4.824-5.804 8.878 1.855 8.858 2.796 17.961 2.796 27.057v116.296c0 62.513-44.44 116.669-105.669 128.771-4.063.803-6.707 4.748-5.903 8.812.706 3.573 3.841 6.047 7.35 6.047.481 0 .972-.046 1.462-.144 31.49-6.225 58.99-22.434 79.482-44.927l35.748 41.755c8.493 9.92 13.17 22.575 13.17 35.634v66.523c0 4.143 3.357 7.5 7.5 7.5s7.5-3.357 7.5-7.5v-66.523c-.001-16.633-5.959-32.752-16.776-45.389z"/><path d="m230.167 391.342c-61.229-12.103-105.669-66.259-105.669-128.771v-116.297c0-72.384 58.888-131.274 131.273-131.274 25.369 0 49.983 7.248 71.183 20.96 20.658 13.362 37.115 32.157 47.593 54.354 1.768 3.746 6.238 5.35 9.983 3.581 3.746-1.768 5.35-6.237 3.581-9.983-11.671-24.728-30.002-45.665-53.011-60.548-23.632-15.285-51.063-23.364-79.329-23.364-80.655 0-146.273 65.618-146.273 146.274v116.296c0 32.416 10.73 62.812 29.077 87.411l-36.94 43.148c-10.817 12.637-16.775 28.756-16.775 45.39v6.811c0 4.143 3.357 7.5 7.5 7.5s7.5-3.357 7.5-7.5v-6.811c0-13.059 4.677-25.714 13.17-35.634l35.263-41.19c20.437 22.199 47.74 38.189 78.966 44.362.491.098.979.144 1.462.144 3.509 0 6.644-2.475 7.35-6.047.803-4.064-1.841-8.009-5.904-8.812z"/><path d="m255.771 415.396c-4.143 0-7.5 3.357-7.5 7.5v82.146c0 4.143 3.357 7.5 7.5 7.5s7.5-3.357 7.5-7.5v-82.146c0-4.143-3.357-7.5-7.5-7.5z"/></g></svg>