<svg height="480pt" viewBox="0 0 480.00294 480" width="480pt" xmlns="http://www.w3.org/2000/svg"><path d="m288 328c-13.253906 0-24 10.746094-24 24 0 13.257812 10.746094 24 24 24s24-10.742188 24-24c0-13.253906-10.746094-24-24-24zm0 32c-4.417969 0-8-3.582031-8-8s3.582031-8 8-8 8 3.582031 8 8-3.582031 8-8 8zm0 0"/><path d="m472 464h-32v-16h32c2.65625.003906 5.136719-1.3125 6.625-3.511719 1.488281-2.195312 1.792969-4.988281.808594-7.453125l-11.617188-29.035156h4.183594c2.792969 0 5.386719-1.457031 6.835938-3.847656 1.449218-2.386719 1.546874-5.359375.261718-7.839844l-14.730468-28.3125c2.707031-.121094 5.164062-1.605469 6.535156-3.941406 1.371094-2.332032 1.46875-5.203125.257812-7.625l-32-64c-1.503906-2.523438-4.222656-4.066406-7.160156-4.066406s-5.65625 1.542968-7.160156 4.066406l-32 64c-1.210938 2.421875-1.113282 5.292968.257812 7.625 1.371094 2.335937 3.828125 3.820312 6.535156 3.941406l-14.730468 28.320312c-1.28125 2.480469-1.183594 5.449219.269531 7.835938 1.449219 2.386719 4.035156 3.84375 6.828125 3.84375h4.183594l-11.617188 29.035156c-.984375 2.464844-.679687 5.257813.808594 7.453125 1.488281 2.199219 3.96875 3.515625 6.625 3.511719h32v16h-48v-176.628906c23.027344 3.324218 45.984375-6.476563 59.511719-25.402344 20.964843-28.449219 14.902343-68.507812-13.542969-89.480469l-152-112c-22.675781-16.34375-53.261719-16.34375-75.9375 0l-152 112c-17.820312 13.109375-27.597656 34.5-25.84375 56.554688 1.753906 22.054687 14.789062 41.632812 34.460938 51.757812l-25.808594 51.625c-1.214844 2.421875-1.117188 5.296875.253906 7.632813 1.371094 2.335937 3.832031 3.820312 6.539062 3.941406l-14.730468 28.320312c-1.28125 2.480469-1.183594 5.449219.269531 7.835938 1.449219 2.386719 4.035156 3.84375 6.828125 3.84375h4.183594l-11.617188 29.035156c-.984375 2.464844-.679687 5.257813.808594 7.453125 1.488281 2.199219 3.96875 3.515625 6.625 3.511719h32v40h-48c-4.417969 0-8 3.582031-8 8s3.582031 8 8 8h464c4.417969 0 8-3.582031 8-8s-3.582031-8-8-8zm-384 0h-16v-40h16zm-52.183594-56 11.617188-29.03125c.984375-2.464844.679687-5.257812-.808594-7.453125-1.488281-2.199219-3.96875-3.515625-6.625-3.515625h-2.824219l14.71875-28.308594c1.277344-2.457031 1.195313-5.402344-.222656-7.78125-1.414063-2.378906-3.960937-3.859375-6.726563-3.910156l19.054688-38.109375 19.054688 38.109375c-2.765626.050781-5.3125 1.53125-6.726563 3.910156-1.417969 2.378906-1.5 5.324219-.222656 7.78125l14.71875 28.308594h-2.824219c-2.65625 0-5.136719 1.316406-6.625 3.515625-1.488281 2.195313-1.792969 4.988281-.808594 7.453125l11.617188 29.03125zm45.09375-120.070312c2.375-.054688 4.738282-.242188 7.089844-.558594v14.742187zm279.089844 176.070312h-144v-16h144zm-112-32v-120h80v120zm112 0h-16v-128c0-4.417969-3.582031-8-8-8h-96c-4.417969 0-8 3.582031-8 8v128h-24c-4.417969 0-8 3.582031-8 8v24h-96v-40c2.65625.003906 5.136719-1.3125 6.625-3.511719 1.488281-2.195312 1.792969-4.988281.808594-7.453125l-11.617188-29.035156h4.183594c2.792969 0 5.386719-1.457031 6.835938-3.847656 1.449218-2.386719 1.546874-5.359375.261718-7.839844l-7.410156-14.253906c.160156-.523438.265625-1.058594.3125-1.601563v-73.328125c4.957031-1.945312 9.648438-4.503906 13.96875-7.617187l15.632812-11.511719h196.796876l15.609374 11.503906c4.328126 3.121094 9.027344 5.683594 13.992188 7.632813zm-204.6875-184 76.6875-56.496094 76.679688 56.496094zm200.191406 14.625-123.503906-91-103.65625 76.375h-.34375v.25l-19.519531 14.398438c-8.246094 6.09375-18.230469 9.371093-28.480469 9.351562-2.472656-.019531-4.9375-.238281-7.375-.648438l-1.464844-2.925781c-1.324218-2.191406-3.570312-3.664062-6.109375-4.007812-2.535156-.339844-5.09375.488281-6.945312 2.253906-14.777344-7.589844-24.582031-22.277344-25.917969-38.835937-1.332031-16.558594 5.988281-32.628907 19.355469-42.492188l152-112c17.007812-12.246094 39.9375-12.246094 56.945312 0l152 112c21.332031 15.730469 25.878907 45.777344 10.152344 67.113281-9.058594 12.265625-23.394531 19.515625-38.640625 19.542969-10.261719.027344-20.253906-3.261719-28.496094-9.375zm48.3125 169.375 11.617188-29.03125c.984375-2.464844.679687-5.257812-.808594-7.453125-1.488281-2.199219-3.96875-3.515625-6.625-3.515625h-2.824219l14.71875-28.308594c1.277344-2.457031 1.195313-5.402344-.222656-7.78125-1.414063-2.378906-3.960937-3.859375-6.726563-3.910156l19.054688-38.109375 19.054688 38.109375c-2.765626.050781-5.3125 1.53125-6.726563 3.910156-1.417969 2.378906-1.5 5.324219-.222656 7.78125l14.71875 28.308594h-2.824219c-2.65625 0-5.136719 1.316406-6.625 3.515625-1.488281 2.195313-1.792969 4.988281-.808594 7.453125l11.617188 29.03125zm0 0"/><path d="m200 288h-64c-4.417969 0-8 3.582031-8 8v64c0 4.417969 3.582031 8 8 8h64c4.417969 0 8-3.582031 8-8v-64c0-4.417969-3.582031-8-8-8zm-40 64h-16v-16h16zm0-32h-16v-16h16zm32 32h-16v-16h16zm0-32h-16v-16h16zm0 0"/><path d="m120 80c13.253906 0 24-10.742188 24-24 0-13.253906-10.746094-24-24-24s-24 10.746094-24 24c0 13.257812 10.746094 24 24 24zm0-32c4.417969 0 8 3.582031 8 8s-3.582031 8-8 8-8-3.582031-8-8 3.582031-8 8-8zm0 0"/><path d="m464 32c0-13.253906-10.746094-24-24-24s-24 10.746094-24 24c0 13.257812 10.746094 24 24 24s24-10.742188 24-24zm-32 0c0-4.417969 3.582031-8 8-8s8 3.582031 8 8-3.582031 8-8 8-8-3.582031-8-8zm0 0"/><path d="m400 128c13.253906 0 24-10.742188 24-24 0-13.253906-10.746094-24-24-24s-24 10.746094-24 24c0 13.257812 10.746094 24 24 24zm0-32c4.417969 0 8 3.582031 8 8s-3.582031 8-8 8-8-3.582031-8-8 3.582031-8 8-8zm0 0"/><path d="m296 32c0 13.257812 10.746094 24 24 24s24-10.742188 24-24c0-13.253906-10.746094-24-24-24s-24 10.746094-24 24zm32 0c0 4.417969-3.582031 8-8 8s-8-3.582031-8-8 3.582031-8 8-8 8 3.582031 8 8zm0 0"/><path d="m72 24c0-13.253906-10.746094-24-24-24s-24 10.746094-24 24c0 13.257812 10.746094 24 24 24s24-10.742188 24-24zm-24 8c-4.417969 0-8-3.582031-8-8s3.582031-8 8-8 8 3.582031 8 8-3.582031 8-8 8zm0 0"/><path d="m32 144c13.253906 0 24-10.742188 24-24 0-13.253906-10.746094-24-24-24s-24 10.746094-24 24c0 13.257812 10.746094 24 24 24zm0-32c4.417969 0 8 3.582031 8 8s-3.582031 8-8 8-8-3.582031-8-8 3.582031-8 8-8zm0 0"/></svg>